<svg width="2048" height="235" viewBox="0 0 2048 235" fill="none" xmlns="http://www.w3.org/2000/svg">
  <rect width="2048" height="235" fill="black"/>
  <path d="M31 151C31 182 44 192 91 197C105 198 130 201 147 201C181 201 192 194 192 172V145C192 126 185 119 150 115L88 108C27 101 0 81 0 39V33C0 10 8 0 31 0H105C153 0 170 8 176 25L182 80H122L118 63C116 52 111 49 92 48C79 47 65 46 55 46C34 46 28 50 28 67V86C28 103 35 109 67 112L133 119C196 126 222 143 222 188V197C222 224 212 235 178 235H96C39 235 15 223 9 195L0 151H31Z" fill="#F3F0EC"/>
  <path d="M178 28H239V97H325V28H386V207H325V143H239V207H178V28Z" fill="#F3F0EC"/>
  <path d="M442 207H377L457 28H525L606 207H541L526 171H457L442 207ZM474 124H509L492 79L474 124Z" fill="#F3F0EC"/>
  <path d="M606 28H689C734 28 752 33 765 47C775 58 780 74 780 97V98C780 130 766 145 738 151L786 207H715L676 160H667V207H606V28ZM667 74V114H699C717 114 723 109 723 95V93C723 79 716 74 698 74H667Z" fill="#F3F0EC"/>
  <path d="M784 28H845V103H868L940 28H1012L919 113L1018 207H942L868 128H845V207H784V28Z" fill="#F3F0EC"/>
  <path d="M1051 0C1115 0 1224 58 1334 207H1280C1220 120 1144 60 1083 37C1096 66 1105 104 1113 145C1052 151 999 171 950 207H882C938 155 999 129 1081 119C1078 79 1069 41 1051 0Z" fill="#F3F0EC"/>
  <path d="M1402 151C1402 182 1415 192 1462 197C1476 198 1501 201 1518 201C1552 201 1563 194 1563 172V145C1563 126 1556 119 1521 115L1459 108C1398 101 1371 81 1371 39V33C1371 10 1379 0 1402 0H1476C1524 0 1541 8 1547 25L1553 88H1492L1488 63C1486 52 1481 49 1462 48C1449 47 1435 46 1425 46C1404 46 1398 50 1398 67V86C1398 103 1405 109 1437 112L1503 119C1566 126 1592 143 1592 188V197C1592 224 1582 235 1548 235H1466C1409 235 1385 223 1379 195L1371 151H1402Z" fill="#F3F0EC"/>
  <path d="M1600 28H1661V207H1600V28Z" fill="#F3F0EC"/>
  <path d="M1679 28H1740V161H1831V207H1679V28Z" fill="#F3F0EC"/>
  <path d="M1848 28H1909V207H1848V28Z" fill="#F3F0EC"/>
  <path d="M1927 28H2014C2037 28 2056 33 2068 43C2081 54 2087 72 2087 96V140C2087 165 2080 183 2067 194C2054 203 2034 207 2007 207H1927V28ZM1988 74V161H2001C2016 161 2023 158 2025 152C2027 147 2028 141 2028 132V102C2028 92 2027 85 2024 80C2020 76 2013 74 2001 74H1988Z" fill="#F3F0EC"/>
</svg>
